<mxfile host="app.diagrams.net" agent="Mozilla/5.0 (X11; Linux x86_64; rv:143.0) Gecko/20100101 Firefox/143.0" version="28.2.8">
  <diagram name="Page-1" id="5FiVmgT2oJeA1IZFQA2R">
    <mxGraphModel dx="2183" dy="766" grid="1" gridSize="10" guides="1" tooltips="1" connect="1" arrows="1" fold="1" page="1" pageScale="1" pageWidth="850" pageHeight="1100" math="0" shadow="0">
      <root>
        <mxCell id="0" />
        <mxCell id="1" parent="0" />
        <mxCell id="OOympv97dzDQUYDObQJj-1" value="" style="rounded=0;whiteSpace=wrap;html=1;" parent="1" vertex="1">
          <mxGeometry x="150" y="55" width="461" height="795" as="geometry" />
        </mxCell>
        <mxCell id="OOympv97dzDQUYDObQJj-2" value="Sistema software lavatrice" style="rounded=0;whiteSpace=wrap;html=1;" parent="1" vertex="1">
          <mxGeometry x="150" y="25" width="180" height="30" as="geometry" />
        </mxCell>
        <mxCell id="OOympv97dzDQUYDObQJj-3" value="&lt;div&gt;Esecuzione ciclo&lt;/div&gt;&lt;div&gt;di lavaggio&lt;/div&gt;" style="ellipse;whiteSpace=wrap;html=1;" parent="1" vertex="1">
          <mxGeometry x="340" y="460" width="110" height="40" as="geometry" />
        </mxCell>
        <mxCell id="OOympv97dzDQUYDObQJj-4" value="&lt;div&gt;pausa&lt;/div&gt;&lt;div&gt;ciclo&lt;/div&gt;" style="ellipse;whiteSpace=wrap;html=1;" parent="1" vertex="1">
          <mxGeometry x="320" y="550" width="60" height="40" as="geometry" />
        </mxCell>
        <mxCell id="OOympv97dzDQUYDObQJj-5" value="&amp;lt;&amp;lt;extend&amp;gt;&amp;gt;" style="html=1;verticalAlign=bottom;labelBackgroundColor=none;endArrow=open;endFill=0;dashed=1;rounded=0;exitX=0.5;exitY=0;exitDx=0;exitDy=0;entryX=0.5;entryY=1;entryDx=0;entryDy=0;" parent="1" source="OOympv97dzDQUYDObQJj-4" target="OOympv97dzDQUYDObQJj-3" edge="1">
          <mxGeometry x="-0.9779" y="14" width="160" relative="1" as="geometry">
            <mxPoint x="490" y="460" as="sourcePoint" />
            <mxPoint x="650" y="460" as="targetPoint" />
            <mxPoint as="offset" />
          </mxGeometry>
        </mxCell>
        <mxCell id="OOympv97dzDQUYDObQJj-6" value="Ripresa&lt;div&gt;ciclo&lt;/div&gt;" style="ellipse;whiteSpace=wrap;html=1;" parent="1" vertex="1">
          <mxGeometry x="260" y="630" width="60" height="40" as="geometry" />
        </mxCell>
        <mxCell id="OOympv97dzDQUYDObQJj-7" value="&amp;lt;&amp;lt;extend&amp;gt;&amp;gt;" style="html=1;verticalAlign=bottom;labelBackgroundColor=none;endArrow=open;endFill=0;dashed=1;rounded=0;exitX=0.5;exitY=0;exitDx=0;exitDy=0;entryX=0.283;entryY=0.875;entryDx=0;entryDy=0;entryPerimeter=0;" parent="1" source="OOympv97dzDQUYDObQJj-6" target="OOympv97dzDQUYDObQJj-4" edge="1">
          <mxGeometry x="0.0609" y="-17" width="160" relative="1" as="geometry">
            <mxPoint x="430" y="560" as="sourcePoint" />
            <mxPoint x="332" y="591" as="targetPoint" />
            <mxPoint as="offset" />
          </mxGeometry>
        </mxCell>
        <mxCell id="OOympv97dzDQUYDObQJj-8" value="&lt;div&gt;Annulla&lt;/div&gt;&lt;div&gt;ciclo&lt;/div&gt;" style="ellipse;whiteSpace=wrap;html=1;" parent="1" vertex="1">
          <mxGeometry x="380" y="670" width="60" height="40" as="geometry" />
        </mxCell>
        <mxCell id="OOympv97dzDQUYDObQJj-9" value="&amp;lt;&amp;lt;extend&amp;gt;&amp;gt;" style="html=1;verticalAlign=bottom;labelBackgroundColor=none;endArrow=open;endFill=0;dashed=1;rounded=0;exitX=0.5;exitY=0;exitDx=0;exitDy=0;entryX=0.75;entryY=0.9;entryDx=0;entryDy=0;entryPerimeter=0;" parent="1" source="OOympv97dzDQUYDObQJj-8" target="OOympv97dzDQUYDObQJj-4" edge="1">
          <mxGeometry x="-0.6" y="-15" width="160" relative="1" as="geometry">
            <mxPoint x="596.98" y="552" as="sourcePoint" />
            <mxPoint x="350" y="610" as="targetPoint" />
            <mxPoint as="offset" />
          </mxGeometry>
        </mxCell>
        <mxCell id="OOympv97dzDQUYDObQJj-10" style="edgeStyle=orthogonalEdgeStyle;rounded=0;orthogonalLoop=1;jettySize=auto;html=1;entryX=0;entryY=0.5;entryDx=0;entryDy=0;endArrow=none;endFill=0;" parent="1" source="OOympv97dzDQUYDObQJj-18" target="OOympv97dzDQUYDObQJj-22" edge="1">
          <mxGeometry relative="1" as="geometry">
            <Array as="points">
              <mxPoint x="140" y="550" />
              <mxPoint x="140" y="480" />
            </Array>
          </mxGeometry>
        </mxCell>
        <mxCell id="OOympv97dzDQUYDObQJj-11" style="edgeStyle=orthogonalEdgeStyle;rounded=0;orthogonalLoop=1;jettySize=auto;html=1;entryX=0;entryY=0.5;entryDx=0;entryDy=0;endArrow=none;endFill=0;" parent="1" source="OOympv97dzDQUYDObQJj-18" target="OOympv97dzDQUYDObQJj-23" edge="1">
          <mxGeometry relative="1" as="geometry">
            <Array as="points">
              <mxPoint x="120" y="550" />
              <mxPoint x="120" y="380" />
            </Array>
          </mxGeometry>
        </mxCell>
        <mxCell id="OOympv97dzDQUYDObQJj-12" style="edgeStyle=orthogonalEdgeStyle;rounded=0;orthogonalLoop=1;jettySize=auto;html=1;entryX=0;entryY=0.5;entryDx=0;entryDy=0;endArrow=none;endFill=0;" parent="1" source="OOympv97dzDQUYDObQJj-18" target="OOympv97dzDQUYDObQJj-8" edge="1">
          <mxGeometry relative="1" as="geometry">
            <Array as="points">
              <mxPoint x="130" y="550" />
              <mxPoint x="130" y="690" />
              <mxPoint x="380" y="690" />
            </Array>
          </mxGeometry>
        </mxCell>
        <mxCell id="OOympv97dzDQUYDObQJj-13" style="edgeStyle=orthogonalEdgeStyle;rounded=0;orthogonalLoop=1;jettySize=auto;html=1;entryX=0;entryY=0.5;entryDx=0;entryDy=0;endArrow=none;endFill=0;" parent="1" source="OOympv97dzDQUYDObQJj-18" target="OOympv97dzDQUYDObQJj-6" edge="1">
          <mxGeometry relative="1" as="geometry">
            <Array as="points">
              <mxPoint x="140" y="550" />
              <mxPoint x="140" y="650" />
            </Array>
          </mxGeometry>
        </mxCell>
        <mxCell id="OOympv97dzDQUYDObQJj-14" style="edgeStyle=orthogonalEdgeStyle;rounded=0;orthogonalLoop=1;jettySize=auto;html=1;entryX=0;entryY=0.5;entryDx=0;entryDy=0;endArrow=none;endFill=0;" parent="1" source="OOympv97dzDQUYDObQJj-18" target="OOympv97dzDQUYDObQJj-26" edge="1">
          <mxGeometry relative="1" as="geometry">
            <Array as="points">
              <mxPoint x="110" y="550" />
              <mxPoint x="110" y="335" />
            </Array>
          </mxGeometry>
        </mxCell>
        <mxCell id="OOympv97dzDQUYDObQJj-15" style="edgeStyle=orthogonalEdgeStyle;rounded=0;orthogonalLoop=1;jettySize=auto;html=1;entryX=0;entryY=0.5;entryDx=0;entryDy=0;endArrow=none;endFill=0;" parent="1" source="OOympv97dzDQUYDObQJj-18" target="OOympv97dzDQUYDObQJj-33" edge="1">
          <mxGeometry relative="1" as="geometry">
            <Array as="points">
              <mxPoint x="100" y="550" />
              <mxPoint x="100" y="725" />
            </Array>
          </mxGeometry>
        </mxCell>
        <mxCell id="OOympv97dzDQUYDObQJj-16" style="edgeStyle=orthogonalEdgeStyle;rounded=0;orthogonalLoop=1;jettySize=auto;html=1;entryX=0;entryY=0.5;entryDx=0;entryDy=0;endArrow=none;endFill=0;" parent="1" source="OOympv97dzDQUYDObQJj-18" target="OOympv97dzDQUYDObQJj-45" edge="1">
          <mxGeometry relative="1" as="geometry">
            <Array as="points">
              <mxPoint x="55" y="160" />
            </Array>
          </mxGeometry>
        </mxCell>
        <mxCell id="OOympv97dzDQUYDObQJj-17" style="edgeStyle=orthogonalEdgeStyle;rounded=0;orthogonalLoop=1;jettySize=auto;html=1;entryX=0;entryY=0.5;entryDx=0;entryDy=0;endArrow=none;endFill=0;" parent="1" target="OOympv97dzDQUYDObQJj-47" edge="1">
          <mxGeometry relative="1" as="geometry">
            <Array as="points">
              <mxPoint x="40" y="131" />
            </Array>
            <mxPoint x="40" y="541" as="sourcePoint" />
          </mxGeometry>
        </mxCell>
        <mxCell id="OOympv97dzDQUYDObQJj-51" style="edgeStyle=orthogonalEdgeStyle;rounded=0;orthogonalLoop=1;jettySize=auto;html=1;entryX=0;entryY=0.5;entryDx=0;entryDy=0;endArrow=none;endFill=0;" parent="1" target="OOympv97dzDQUYDObQJj-50" edge="1">
          <mxGeometry relative="1" as="geometry">
            <mxPoint x="55" y="558" as="sourcePoint" />
            <Array as="points">
              <mxPoint x="80" y="558" />
              <mxPoint x="80" y="760" />
            </Array>
          </mxGeometry>
        </mxCell>
        <mxCell id="9CPNDD_vhSjWJkQP8pC9-2" style="edgeStyle=orthogonalEdgeStyle;rounded=0;orthogonalLoop=1;jettySize=auto;html=1;entryX=0;entryY=0.5;entryDx=0;entryDy=0;endArrow=none;endFill=0;" parent="1" source="OOympv97dzDQUYDObQJj-18" target="9CPNDD_vhSjWJkQP8pC9-1" edge="1">
          <mxGeometry relative="1" as="geometry">
            <Array as="points">
              <mxPoint x="70" y="805" />
            </Array>
          </mxGeometry>
        </mxCell>
        <mxCell id="v7bjbIh24RHP1lxPFHHC-4" style="edgeStyle=orthogonalEdgeStyle;rounded=0;orthogonalLoop=1;jettySize=auto;html=1;entryX=0;entryY=0.5;entryDx=0;entryDy=0;endArrow=none;endFill=0;" parent="1" source="OOympv97dzDQUYDObQJj-18" target="v7bjbIh24RHP1lxPFHHC-1" edge="1">
          <mxGeometry relative="1" as="geometry">
            <Array as="points">
              <mxPoint x="40" y="91" />
            </Array>
          </mxGeometry>
        </mxCell>
        <mxCell id="K0tBDQ45wyzEzczZAoFQ-4" style="edgeStyle=orthogonalEdgeStyle;rounded=0;orthogonalLoop=1;jettySize=auto;html=1;entryX=0;entryY=0.5;entryDx=0;entryDy=0;endArrow=none;endFill=0;" parent="1" source="OOympv97dzDQUYDObQJj-18" target="K0tBDQ45wyzEzczZAoFQ-3" edge="1">
          <mxGeometry relative="1" as="geometry">
            <Array as="points">
              <mxPoint x="70" y="240" />
            </Array>
          </mxGeometry>
        </mxCell>
        <mxCell id="K0tBDQ45wyzEzczZAoFQ-5" style="edgeStyle=orthogonalEdgeStyle;rounded=0;orthogonalLoop=1;jettySize=auto;html=1;entryX=0;entryY=0.5;entryDx=0;entryDy=0;endArrow=none;endFill=0;" parent="1" source="OOympv97dzDQUYDObQJj-18" target="K0tBDQ45wyzEzczZAoFQ-2" edge="1">
          <mxGeometry relative="1" as="geometry">
            <Array as="points">
              <mxPoint x="70" y="200" />
            </Array>
          </mxGeometry>
        </mxCell>
        <mxCell id="R7YPHtLTiihs7JlC3x6M-3" style="edgeStyle=orthogonalEdgeStyle;rounded=0;orthogonalLoop=1;jettySize=auto;html=1;entryX=0;entryY=0.5;entryDx=0;entryDy=0;endArrow=none;endFill=0;" edge="1" parent="1" source="OOympv97dzDQUYDObQJj-18" target="OOympv97dzDQUYDObQJj-36">
          <mxGeometry relative="1" as="geometry">
            <Array as="points">
              <mxPoint x="90" y="550" />
              <mxPoint x="90" y="310" />
            </Array>
          </mxGeometry>
        </mxCell>
        <mxCell id="R7YPHtLTiihs7JlC3x6M-4" style="edgeStyle=orthogonalEdgeStyle;rounded=0;orthogonalLoop=1;jettySize=auto;html=1;entryX=0;entryY=0.5;entryDx=0;entryDy=0;endArrow=none;endFill=0;" edge="1" parent="1" source="OOympv97dzDQUYDObQJj-18" target="R7YPHtLTiihs7JlC3x6M-1">
          <mxGeometry relative="1" as="geometry">
            <Array as="points">
              <mxPoint x="70" y="280" />
            </Array>
          </mxGeometry>
        </mxCell>
        <mxCell id="OOympv97dzDQUYDObQJj-18" value="Utente" style="shape=umlActor;verticalLabelPosition=bottom;verticalAlign=top;html=1;" parent="1" vertex="1">
          <mxGeometry x="40" y="520" width="30" height="60" as="geometry" />
        </mxCell>
        <mxCell id="OOympv97dzDQUYDObQJj-22" value="&lt;div&gt;Pianifica&lt;/div&gt;&lt;div&gt;lavaggio&lt;/div&gt;" style="ellipse;whiteSpace=wrap;html=1;" parent="1" vertex="1">
          <mxGeometry x="210" y="460" width="70" height="40" as="geometry" />
        </mxCell>
        <mxCell id="OOympv97dzDQUYDObQJj-23" value="avvia&lt;div&gt;lavaggio&lt;/div&gt;" style="ellipse;whiteSpace=wrap;html=1;" parent="1" vertex="1">
          <mxGeometry x="210" y="360" width="70" height="40" as="geometry" />
        </mxCell>
        <mxCell id="OOympv97dzDQUYDObQJj-24" value="Extends" style="endArrow=block;endSize=16;endFill=0;html=1;rounded=0;entryX=0.5;entryY=0;entryDx=0;entryDy=0;exitX=0.5;exitY=1;exitDx=0;exitDy=0;" parent="1" source="OOympv97dzDQUYDObQJj-23" target="OOympv97dzDQUYDObQJj-22" edge="1">
          <mxGeometry x="-0.3333" y="5" width="160" relative="1" as="geometry">
            <mxPoint x="490" y="520" as="sourcePoint" />
            <mxPoint x="650" y="520" as="targetPoint" />
            <mxPoint as="offset" />
          </mxGeometry>
        </mxCell>
        <mxCell id="OOympv97dzDQUYDObQJj-25" value="&amp;lt;&amp;lt;include&amp;gt;&amp;gt;" style="html=1;verticalAlign=bottom;labelBackgroundColor=none;endArrow=open;endFill=0;dashed=1;rounded=0;exitX=1;exitY=0.5;exitDx=0;exitDy=0;entryX=0;entryY=0.5;entryDx=0;entryDy=0;" parent="1" source="OOympv97dzDQUYDObQJj-22" target="OOympv97dzDQUYDObQJj-3" edge="1">
          <mxGeometry width="160" relative="1" as="geometry">
            <mxPoint x="510" y="560" as="sourcePoint" />
            <mxPoint x="420" y="580" as="targetPoint" />
          </mxGeometry>
        </mxCell>
        <mxCell id="OOympv97dzDQUYDObQJj-26" value="Diagostica" style="ellipse;whiteSpace=wrap;html=1;" parent="1" vertex="1">
          <mxGeometry x="350" y="320" width="80" height="30" as="geometry" />
        </mxCell>
        <mxCell id="OOympv97dzDQUYDObQJj-28" value="&lt;div&gt;rilevamento&lt;/div&gt;&lt;div&gt;carico&lt;/div&gt;" style="ellipse;whiteSpace=wrap;html=1;" parent="1" vertex="1">
          <mxGeometry x="320" y="370" width="90" height="40" as="geometry" />
        </mxCell>
        <mxCell id="OOympv97dzDQUYDObQJj-29" style="edgeStyle=orthogonalEdgeStyle;rounded=0;orthogonalLoop=1;jettySize=auto;html=1;entryX=1;entryY=0.5;entryDx=0;entryDy=0;endArrow=none;endFill=0;" parent="1" source="OOympv97dzDQUYDObQJj-31" target="OOympv97dzDQUYDObQJj-26" edge="1">
          <mxGeometry relative="1" as="geometry">
            <Array as="points">
              <mxPoint x="720" y="540" />
              <mxPoint x="720" y="335" />
            </Array>
          </mxGeometry>
        </mxCell>
        <mxCell id="OOympv97dzDQUYDObQJj-30" style="edgeStyle=orthogonalEdgeStyle;rounded=0;orthogonalLoop=1;jettySize=auto;html=1;entryX=1;entryY=0.5;entryDx=0;entryDy=0;endArrow=none;endFill=0;" parent="1" source="OOympv97dzDQUYDObQJj-31" target="OOympv97dzDQUYDObQJj-33" edge="1">
          <mxGeometry relative="1" as="geometry">
            <Array as="points">
              <mxPoint x="750" y="570" />
              <mxPoint x="750" y="725" />
            </Array>
          </mxGeometry>
        </mxCell>
        <mxCell id="K0tBDQ45wyzEzczZAoFQ-6" style="edgeStyle=orthogonalEdgeStyle;rounded=0;orthogonalLoop=1;jettySize=auto;html=1;entryX=1;entryY=0.5;entryDx=0;entryDy=0;endArrow=none;endFill=0;" parent="1" source="OOympv97dzDQUYDObQJj-31" target="OOympv97dzDQUYDObQJj-3" edge="1">
          <mxGeometry relative="1" as="geometry" />
        </mxCell>
        <mxCell id="OOympv97dzDQUYDObQJj-31" value="Lavatrice" style="shape=umlActor;verticalLabelPosition=bottom;verticalAlign=top;html=1;outlineConnect=0;" parent="1" vertex="1">
          <mxGeometry x="790" y="530" width="30" height="60" as="geometry" />
        </mxCell>
        <mxCell id="OOympv97dzDQUYDObQJj-33" value="&lt;div&gt;reset&lt;/div&gt;&lt;div&gt;lavatrice&lt;/div&gt;" style="ellipse;whiteSpace=wrap;html=1;" parent="1" vertex="1">
          <mxGeometry x="490" y="705" width="70" height="40" as="geometry" />
        </mxCell>
        <mxCell id="OOympv97dzDQUYDObQJj-35" value="&lt;div&gt;ottimizzazione&lt;/div&gt;&lt;div&gt;consumi&amp;nbsp;IOT&lt;/div&gt;" style="ellipse;whiteSpace=wrap;html=1;" parent="1" vertex="1">
          <mxGeometry x="430" y="190" width="100" height="40" as="geometry" />
        </mxCell>
        <mxCell id="OOympv97dzDQUYDObQJj-36" value="&lt;div&gt;Annulla&lt;/div&gt;ottimizzazione" style="ellipse;whiteSpace=wrap;html=1;" parent="1" vertex="1">
          <mxGeometry x="510" y="290" width="90" height="40" as="geometry" />
        </mxCell>
        <mxCell id="OOympv97dzDQUYDObQJj-37" value="&amp;lt;&amp;lt;extend&amp;gt;&amp;gt;" style="html=1;verticalAlign=bottom;labelBackgroundColor=none;endArrow=open;endFill=0;dashed=1;rounded=0;exitX=0.589;exitY=0.05;exitDx=0;exitDy=0;entryX=1;entryY=1;entryDx=0;entryDy=0;exitPerimeter=0;" parent="1" source="OOympv97dzDQUYDObQJj-36" target="OOympv97dzDQUYDObQJj-35" edge="1">
          <mxGeometry x="-0.5177" y="-1" width="160" relative="1" as="geometry">
            <mxPoint x="445" y="694" as="sourcePoint" />
            <mxPoint x="400" y="630" as="targetPoint" />
            <mxPoint as="offset" />
          </mxGeometry>
        </mxCell>
        <mxCell id="OOympv97dzDQUYDObQJj-38" style="edgeStyle=orthogonalEdgeStyle;rounded=0;orthogonalLoop=1;jettySize=auto;html=1;entryX=1;entryY=0.5;entryDx=0;entryDy=0;endArrow=none;endFill=0;" parent="1" source="OOympv97dzDQUYDObQJj-41" target="OOympv97dzDQUYDObQJj-35" edge="1">
          <mxGeometry relative="1" as="geometry" />
        </mxCell>
        <mxCell id="OOympv97dzDQUYDObQJj-39" style="edgeStyle=orthogonalEdgeStyle;rounded=0;orthogonalLoop=1;jettySize=auto;html=1;entryX=1;entryY=0.5;entryDx=0;entryDy=0;endArrow=none;endFill=0;" parent="1" source="OOympv97dzDQUYDObQJj-41" target="OOympv97dzDQUYDObQJj-45" edge="1">
          <mxGeometry relative="1" as="geometry">
            <Array as="points">
              <mxPoint x="573" y="190" />
              <mxPoint x="573" y="160" />
            </Array>
          </mxGeometry>
        </mxCell>
        <mxCell id="OOympv97dzDQUYDObQJj-40" style="edgeStyle=orthogonalEdgeStyle;rounded=0;orthogonalLoop=1;jettySize=auto;html=1;entryX=1;entryY=0.5;entryDx=0;entryDy=0;endArrow=none;endFill=0;" parent="1" target="OOympv97dzDQUYDObQJj-47" edge="1">
          <mxGeometry relative="1" as="geometry">
            <Array as="points">
              <mxPoint x="770" y="201" />
              <mxPoint x="770" y="131" />
            </Array>
            <mxPoint x="785" y="201" as="sourcePoint" />
          </mxGeometry>
        </mxCell>
        <mxCell id="v7bjbIh24RHP1lxPFHHC-3" style="edgeStyle=orthogonalEdgeStyle;rounded=0;orthogonalLoop=1;jettySize=auto;html=1;entryX=1;entryY=0.5;entryDx=0;entryDy=0;endArrow=none;endFill=0;" parent="1" source="OOympv97dzDQUYDObQJj-41" target="v7bjbIh24RHP1lxPFHHC-1" edge="1">
          <mxGeometry relative="1" as="geometry">
            <Array as="points">
              <mxPoint x="785" y="91" />
            </Array>
          </mxGeometry>
        </mxCell>
        <mxCell id="OOympv97dzDQUYDObQJj-41" value="dispositivo IOT" style="shape=umlActor;verticalLabelPosition=bottom;verticalAlign=top;html=1;outlineConnect=0;" parent="1" vertex="1">
          <mxGeometry x="770" y="180" width="30" height="60" as="geometry" />
        </mxCell>
        <mxCell id="OOympv97dzDQUYDObQJj-44" value="&amp;lt;&amp;lt;include&amp;gt;&amp;gt;" style="html=1;verticalAlign=bottom;labelBackgroundColor=none;endArrow=open;endFill=0;dashed=1;rounded=0;exitX=0.5;exitY=0;exitDx=0;exitDy=0;entryX=0.5;entryY=1;entryDx=0;entryDy=0;" parent="1" source="OOympv97dzDQUYDObQJj-3" target="OOympv97dzDQUYDObQJj-28" edge="1">
          <mxGeometry x="-0.1471" y="3" width="160" relative="1" as="geometry">
            <mxPoint x="480" y="480" as="sourcePoint" />
            <mxPoint x="562" y="484" as="targetPoint" />
            <mxPoint as="offset" />
          </mxGeometry>
        </mxCell>
        <mxCell id="OOympv97dzDQUYDObQJj-45" value="&lt;div&gt;Associa&lt;/div&gt;&lt;div&gt;Dis. IOT&lt;/div&gt;" style="ellipse;whiteSpace=wrap;html=1;" parent="1" vertex="1">
          <mxGeometry x="315" y="140" width="70" height="40" as="geometry" />
        </mxCell>
        <mxCell id="OOympv97dzDQUYDObQJj-47" value="&lt;div&gt;Dissocia&lt;/div&gt;&lt;div&gt;Dis. IOT&lt;/div&gt;" style="ellipse;whiteSpace=wrap;html=1;" parent="1" vertex="1">
          <mxGeometry x="510" y="111" width="70" height="40" as="geometry" />
        </mxCell>
        <mxCell id="OOympv97dzDQUYDObQJj-50" value="Login" style="ellipse;whiteSpace=wrap;html=1;" parent="1" vertex="1">
          <mxGeometry x="265" y="745" width="50" height="30" as="geometry" />
        </mxCell>
        <mxCell id="OOympv97dzDQUYDObQJj-52" value="Recupero password" style="ellipse;whiteSpace=wrap;html=1;" parent="1" vertex="1">
          <mxGeometry x="370" y="740" width="70" height="40" as="geometry" />
        </mxCell>
        <mxCell id="OOympv97dzDQUYDObQJj-53" value="&amp;lt;&amp;lt;extend&amp;gt;&amp;gt;" style="html=1;verticalAlign=bottom;labelBackgroundColor=none;endArrow=open;endFill=0;dashed=1;rounded=0;exitX=0;exitY=0.5;exitDx=0;exitDy=0;entryX=1;entryY=0.5;entryDx=0;entryDy=0;" parent="1" source="OOympv97dzDQUYDObQJj-52" target="OOympv97dzDQUYDObQJj-50" edge="1">
          <mxGeometry x="-0.0114" y="15" width="160" relative="1" as="geometry">
            <mxPoint x="435" y="724" as="sourcePoint" />
            <mxPoint x="406" y="905" as="targetPoint" />
            <mxPoint x="1" as="offset" />
          </mxGeometry>
        </mxCell>
        <mxCell id="9CPNDD_vhSjWJkQP8pC9-1" value="logout" style="ellipse;whiteSpace=wrap;html=1;" parent="1" vertex="1">
          <mxGeometry x="250" y="790" width="60" height="30" as="geometry" />
        </mxCell>
        <mxCell id="9CPNDD_vhSjWJkQP8pC9-3" value="&lt;div&gt;remote&lt;/div&gt;&lt;div&gt;control&lt;/div&gt;" style="shape=umlActor;verticalLabelPosition=bottom;verticalAlign=top;html=1;outlineConnect=0;" parent="1" vertex="1">
          <mxGeometry x="-50" y="520" width="30" height="60" as="geometry" />
        </mxCell>
        <mxCell id="9CPNDD_vhSjWJkQP8pC9-6" style="edgeStyle=orthogonalEdgeStyle;rounded=0;orthogonalLoop=1;jettySize=auto;html=1;entryX=0.5;entryY=0.5;entryDx=0;entryDy=0;entryPerimeter=0;endArrow=block;endFill=0;" parent="1" source="9CPNDD_vhSjWJkQP8pC9-3" target="OOympv97dzDQUYDObQJj-18" edge="1">
          <mxGeometry relative="1" as="geometry" />
        </mxCell>
        <mxCell id="v7bjbIh24RHP1lxPFHHC-1" value="Cerca&lt;div&gt;Dis. IOT&lt;/div&gt;" style="ellipse;whiteSpace=wrap;html=1;" parent="1" vertex="1">
          <mxGeometry x="390" y="71" width="70" height="40" as="geometry" />
        </mxCell>
        <mxCell id="K0tBDQ45wyzEzczZAoFQ-2" value="&lt;div&gt;Attiva&lt;/div&gt;&lt;div&gt;comandi&lt;/div&gt;&lt;div&gt;vocali&lt;/div&gt;" style="ellipse;whiteSpace=wrap;html=1;" parent="1" vertex="1">
          <mxGeometry x="190" y="170" width="70" height="60" as="geometry" />
        </mxCell>
        <mxCell id="K0tBDQ45wyzEzczZAoFQ-3" value="&lt;div&gt;disattiva&lt;/div&gt;&lt;div&gt;comandi&lt;/div&gt;&lt;div&gt;vocali&lt;/div&gt;" style="ellipse;whiteSpace=wrap;html=1;" parent="1" vertex="1">
          <mxGeometry x="265" y="210" width="70" height="60" as="geometry" />
        </mxCell>
        <mxCell id="R7YPHtLTiihs7JlC3x6M-1" value="&lt;div&gt;Attiva&lt;/div&gt;&lt;div&gt;ottimizzazione&lt;/div&gt;" style="ellipse;whiteSpace=wrap;html=1;" vertex="1" parent="1">
          <mxGeometry x="380" y="260" width="90" height="40" as="geometry" />
        </mxCell>
        <mxCell id="R7YPHtLTiihs7JlC3x6M-2" value="&amp;lt;&amp;lt;extend&amp;gt;&amp;gt;" style="html=1;verticalAlign=bottom;labelBackgroundColor=none;endArrow=open;endFill=0;dashed=1;rounded=0;exitX=0.5;exitY=0;exitDx=0;exitDy=0;entryX=0;entryY=1;entryDx=0;entryDy=0;" edge="1" parent="1" source="R7YPHtLTiihs7JlC3x6M-1" target="OOympv97dzDQUYDObQJj-35">
          <mxGeometry x="-0.5177" y="-1" width="160" relative="1" as="geometry">
            <mxPoint x="588" y="278" as="sourcePoint" />
            <mxPoint x="540" y="240" as="targetPoint" />
            <mxPoint as="offset" />
          </mxGeometry>
        </mxCell>
      </root>
    </mxGraphModel>
  </diagram>
</mxfile>
